<?xml version="1.0" encoding="UTF-8"?>
<svg version="1.1" viewBox="0 0 140 140">
  <rect x="10" y="50" width="120" height="40" fill="#7137c8"/>
  <polygon points="10 90 0 93 0 47 10 50" fill="#7137c8"/>
  <polygon points="10 90 0 93 0 70 10 70" fill="#ff6600"/>
  <polygon points="130 90 140 93 140 47 130 50" fill="#7137c8"/>
  <polygon points="130 90 140 93 140 70 130 70" fill="#ff6600"/>
  <path d="m10 70v20h120v-20s-53.6-11.5-120 0z" fill="#ff6600"/>
  <path d="m28.9 66.7 6.29 19.1s21.3-7.68 76-12c0 0 0.403-10.2 3.73-10.1l0.395-4.5s-13.8-1.47-30 1.26l-0.424-2.4-5.66 0.509 0.629 2.94s-15.3 0.0231-34.4 5.24c0 0-0.419-4.19-16.6 0z" fill="#e6e6e6" stroke="#d45500" stroke-width="1px"/>
  <path d="m48.2 56.8s-5.66 0.21-5.66 5.45c0 5.24 10.3 1.89 10.3 1.89s8.31-2.7 24.6-3.13c0 0 3.92-2.11 0.142-5.67s-29.4 1.47-29.4 1.47z" fill="#f2f2f2" stroke="#4400aa" stroke-width="1px"/>
</svg>
